<svg xmlns="http://www.w3.org/2000/svg" viewBox="0 0 800 480" role="img" aria-label="Rising candlestick chart printed on the sleeve">
<rect width="800" height="480" fill="#f1eadb"/>
<rect x="0" y="0" width="12" height="480" fill="#23306e"/>
<rect x="788" y="0" width="12" height="480" fill="#23306e"/>
<line x1="48" x2="752" y1="86.5" y2="86.5" stroke="#d8ccb2" stroke-width="1"/><line x1="48" x2="752" y1="137" y2="137" stroke="#d8ccb2" stroke-width="1"/><line x1="48" x2="752" y1="187.5" y2="187.5" stroke="#d8ccb2" stroke-width="1"/><line x1="48" x2="752" y1="238" y2="238" stroke="#d8ccb2" stroke-width="1"/><line x1="48" x2="752" y1="288.5" y2="288.5" stroke="#d8ccb2" stroke-width="1"/><line x1="48" x2="752" y1="339" y2="339" stroke="#d8ccb2" stroke-width="1"/><line x1="48" x2="752" y1="389.5" y2="389.5" stroke="#d8ccb2" stroke-width="1"/>
<line x1="71.46666666666667" x2="71.46666666666667" y1="387.6296296296296" y2="290.3703703703704" stroke="#1a1510" stroke-width="2"/><line x1="118.4" x2="118.4" y1="357.7037037037037" y2="267.9259259259259" stroke="#1a1510" stroke-width="2"/><line x1="165.33333333333334" x2="165.33333333333334" y1="350.22222222222223" y2="252.96296296296293" stroke="#1a1510" stroke-width="2"/><line x1="212.26666666666665" x2="212.26666666666665" y1="327.77777777777777" y2="245.48148148148152" stroke="#1a1510" stroke-width="2"/><line x1="259.2" x2="259.2" y1="320.2962962962963" y2="223.037037037037" stroke="#1a1510" stroke-width="2"/><line x1="306.13333333333327" x2="306.13333333333327" y1="286.6296296296296" y2="215.55555555555554" stroke="#1a1510" stroke-width="2"/><line x1="353.0666666666666" x2="353.0666666666666" y1="275.4074074074074" y2="185.62962962962962" stroke="#1a1510" stroke-width="2"/><line x1="399.99999999999994" x2="399.99999999999994" y1="256.7037037037037" y2="178.14814814814815" stroke="#1a1510" stroke-width="2"/><line x1="446.9333333333333" x2="446.9333333333333" y1="249.22222222222223" y2="155.7037037037037" stroke="#1a1510" stroke-width="2"/><line x1="493.8666666666666" x2="493.8666666666666" y1="219.2962962962963" y2="140.74074074074076" stroke="#1a1510" stroke-width="2"/><line x1="540.8" x2="540.8" y1="211.81481481481484" y2="118.2962962962963" stroke="#1a1510" stroke-width="2"/><line x1="587.7333333333333" x2="587.7333333333333" y1="181.8888888888889" y2="110.81481481481484" stroke="#1a1510" stroke-width="2"/><line x1="634.6666666666666" x2="634.6666666666666" y1="174.4074074074074" y2="73.40740740740739" stroke="#1a1510" stroke-width="2"/><line x1="681.6" x2="681.6" y1="140.74074074074076" y2="65.92592592592592" stroke="#1a1510" stroke-width="2"/><line x1="728.5333333333333" x2="728.5333333333333" y1="133.25925925925924" y2="36" stroke="#1a1510" stroke-width="2"/>
<rect x="63.46666666666667" y="312.8148148148148" width="16" height="52.37037037037044" fill="#0e7a44"/><rect x="110.4" y="312.8148148148148" width="16" height="22.444444444444457" fill="#b23b2e"/><rect x="157.33333333333334" y="271.66666666666663" width="16" height="63.59259259259261" fill="#0e7a44"/><rect x="204.26666666666665" y="271.66666666666663" width="16" height="33.66666666666674" fill="#b23b2e"/><rect x="251.2" y="241.74074074074076" width="16" height="63.59259259259261" fill="#0e7a44"/><rect x="298.13333333333327" y="241.74074074074076" width="16" height="22.444444444444457" fill="#b23b2e"/><rect x="345.0666666666666" y="200.5925925925926" width="16" height="63.59259259259261" fill="#0e7a44"/><rect x="391.99999999999994" y="200.5925925925926" width="16" height="33.66666666666663" fill="#b23b2e"/><rect x="438.9333333333333" y="170.66666666666669" width="16" height="63.59259259259255" fill="#0e7a44"/><rect x="485.8666666666666" y="170.66666666666669" width="16" height="26.185185185185162" fill="#b23b2e"/><rect x="532.8" y="133.25925925925924" width="16" height="63.59259259259261" fill="#0e7a44"/><rect x="579.7333333333333" y="133.25925925925924" width="16" height="26.18518518518522" fill="#b23b2e"/><rect x="626.6666666666666" y="88.37037037037038" width="16" height="71.07407407407408" fill="#0e7a44"/><rect x="673.6" y="88.37037037037038" width="16" height="29.925925925925924" fill="#b23b2e"/><rect x="720.5333333333333" y="50.96296296296298" width="16" height="67.33333333333331" fill="#0e7a44"/>
<path d="M71.46666666666667 312.8148148148148L118.4 335.25925925925924L165.33333333333334 271.66666666666663L212.26666666666665 305.33333333333337L259.2 241.74074074074076L306.13333333333327 264.1851851851852L353.0666666666666 200.5925925925926L399.99999999999994 234.25925925925924L446.9333333333333 170.66666666666669L493.8666666666666 196.85185185185185L540.8 133.25925925925924L587.7333333333333 159.44444444444446L634.6666666666666 88.37037037037038L681.6 118.2962962962963L728.5333333333333 50.96296296296298" fill="none" stroke="#23306e" stroke-width="3" stroke-linejoin="round"/>
<rect x="48" y="6" width="64" height="20" fill="#1a1510"/>
<text x="56" y="20" font-family="Martian Mono, monospace" font-size="11" fill="#f1eadb">VN-INDEX</text>
</svg>